<svg height="512pt" viewBox="-64 0 512 512" width="512pt" xmlns="http://www.w3.org/2000/svg"><path d="m298.667969 234.667969c-11.796875 0-21.335938-9.558594-21.335938-21.335938v-85.332031c0-47.0625-38.269531-85.332031-85.332031-85.332031s-85.332031 38.269531-85.332031 85.332031v85.332031c0 11.777344-9.539063 21.335938-21.335938 21.335938s-21.332031-9.558594-21.332031-21.335938v-85.332031c0-70.59375 57.40625-128 128-128s128 57.40625 128 128v85.332031c0 11.777344-9.535156 21.335938-21.332031 21.335938zm0 0" fill="#607d8b"/><path d="m336 192h-288c-26.453125 0-48 21.523438-48 48v224c0 26.476562 21.546875 48 48 48h288c26.453125 0 48-21.523438 48-48v-224c0-26.476562-21.546875-48-48-48zm0 0" fill="#ffc107"/></svg>