<svg id="Слой_1" data-name="Слой 1" xmlns="http://www.w3.org/2000/svg" viewBox="0 0 513.76 513.76"><title>logo</title><path d="M454.36,210.94H330.85a15,15,0,0,1-15-15V100.53a15,15,0,0,1,15-15H454.36a15,15,0,0,1,14.22,19.83L454,148.22l14.54,42.88a15,15,0,0,1-14.22,19.84Z" transform="translate(0.88)" style="fill:#04a18c"/><path d="M357.63,157.5H213.18V32.08H357.63a15,15,0,0,1,15,15v95.4A15,15,0,0,1,357.63,157.5Z" transform="translate(0.88)" style="fill:#44c4a1"/><path d="M213.18,270a15,15,0,0,1-15-15V15a15,15,0,1,1,30,0V255A15,15,0,0,1,213.18,270Z" transform="translate(0.88)" style="fill:#a56032"/><path d="M213.18,0V270a15,15,0,0,0,15-15V15a15,15,0,0,0-15-15Z" transform="translate(0.88)" style="fill:#854d29"/><path d="M314.47,255.79V298H246.94V255.79a15,15,0,0,0-15-15h-37.5a15,15,0,0,0-15,15V298H111.9V255.79a15,15,0,0,0-15-15H59.39a15,15,0,0,0-15,15V359.12A15.09,15.09,0,0,0,46,365.84L76.55,427a15,15,0,0,1,1.59,6.71V512H348.23V433.73a15,15,0,0,1,1.58-6.71l30.6-61.18a15.08,15.08,0,0,0,1.58-6.72V255.79a15,15,0,0,0-15-15h-37.5a15,15,0,0,0-15,15Z" transform="translate(0.88)" style="fill:#f9f6f6"/><path d="M367,240.78h-37.5a15,15,0,0,0-15,15V298H246.94V255.79a15,15,0,0,0-15-15H213.18V512H348.23V433.73a15,15,0,0,1,1.58-6.71l30.59-61.18a15,15,0,0,0,1.59-6.72V255.79a15,15,0,0,0-15-15Z" transform="translate(0.88)" style="fill:#dddada"/><path d="M381.56,362.67H44.8A15.27,15.27,0,0,0,46,365.84L76.55,427a14.5,14.5,0,0,1,1.15,3.17h271a14.5,14.5,0,0,1,1.15-3.17l30.59-61.18A15.27,15.27,0,0,0,381.56,362.67Z" transform="translate(0.88)" style="fill:#dddada"/><path d="M213.18,362.67v67.52H348.66a15,15,0,0,1,1.15-3.17l30.59-61.18a15.27,15.27,0,0,0,1.16-3.17Z" transform="translate(0.88)" style="fill:#c3c1c1"/><rect width="513.76" height="513.76" style="fill:none"/></svg>